<svg xmlns="http://www.w3.org/2000/svg" xmlns:xlink="http://www.w3.org/1999/xlink" width="16" height="16" viewBox="0 0 16 16"><defs><clipPath id="a"><rect width="16" height="16" transform="translate(0.452 -0.032)" fill="#f3f3f3"/></clipPath></defs><g transform="translate(-0.452 0.032)" clip-path="url(#a)"><g transform="translate(0.201 -0.275)"><path d="M16.244,8.555q0,4.186,0,8.371c0,.1-.018.116-.11.116q-7.994,0-15.987,0c-.092,0-.11-.019-.11-.116q0-8.385,0-16.771c0-.1.018-.116.11-.116q7.994,0,15.987,0c.092,0,.11.019.11.116Q16.242,4.355,16.244,8.555Z" transform="translate(-0.039 -0.039)" fill="#92ffda" fill-rule="evenodd"/><path d="M8.183,18.248a.453.453,0,0,1-.2-.074,5.04,5.04,0,0,1-1.678-1.7,4.145,4.145,0,0,1-.323-.665.863.863,0,0,1-.051-.4.556.556,0,0,1,.4-.446,2.305,2.305,0,0,1,1.183-.16,24,24,0,0,0,2.8.271,10.98,10.98,0,0,0,1.991-.168,4.923,4.923,0,0,1,1.427-.119,1.964,1.964,0,0,1,.878.332.515.515,0,0,1,.148.574,4.327,4.327,0,0,1-.7,1.262,5.03,5.03,0,0,1-.92.922,2.222,2.222,0,0,1-.639.382,2.708,2.708,0,0,0-.661-.446,3.388,3.388,0,0,0-1.175-.331,3.5,3.5,0,0,0-2.263.6C8.333,18.135,8.284,18.232,8.183,18.248Z" transform="translate(-2.256 -5.138)" fill="#414141" fill-rule="evenodd"/><path d="M9.547,19.635a.479.479,0,0,1,.177-.207,3.708,3.708,0,0,1,1.749-.632,3.294,3.294,0,0,1,1.976.461c.114.066.221.143.331.215a.2.2,0,0,1,.1.175,2.464,2.464,0,0,1-.853.4,4.89,4.89,0,0,1-2.157.1A5.356,5.356,0,0,1,9.8,19.811.545.545,0,0,1,9.547,19.635Z" transform="translate(-3.62 -6.526)" fill="#fa7a7b" fill-rule="evenodd"/><path d="M20.581,10.333c0,.116,0,.2-.085.243s-.145-.009-.205-.058a.943.943,0,0,0-.5-.179,1.467,1.467,0,0,0-1.095.222.116.116,0,0,1-.15.013.226.226,0,0,1-.073-.216,1.33,1.33,0,0,1,.213-.63.99.99,0,0,1,1.43-.269A1.121,1.121,0,0,1,20.581,10.333Z" transform="translate(-6.98 -3.231)" fill="#414141" fill-rule="evenodd"/><path d="M6.335,10.413a.182.182,0,0,1-.083.167c-.06.042-.113.009-.162-.024a1.6,1.6,0,0,0-1.458-.111.487.487,0,0,0-.17.11.119.119,0,0,1-.148.031.187.187,0,0,1-.109-.167,1.161,1.161,0,0,1,.809-1.1,1.008,1.008,0,0,1,1.206.638A1.557,1.557,0,0,1,6.335,10.413Z" transform="translate(-1.608 -3.237)" fill="#414141" fill-rule="evenodd"/></g></g></svg>