<svg xmlns="http://www.w3.org/2000/svg" width="29.239" height="29.239" viewBox="0 0 29.239 29.239"><path d="M14.619,29.239A14.619,14.619,0,1,1,29.239,14.619,14.617,14.617,0,0,1,14.619,29.239Zm0,0" fill="#66a9df"/><path d="M256,0V29.239A14.619,14.619,0,0,0,256,0Zm0,0" transform="translate(-241.381 0)" fill="#4f84cf"/><path d="M69.856,316a13.711,13.711,0,0,0-11.274,5.88,14.618,14.618,0,0,0,22.652-.127C79.8,320.323,76.557,316,69.856,316Zm0,0" transform="translate(-55.237 -297.954)" fill="#d6f3fe"/><path d="M267.378,321.753A14.581,14.581,0,0,1,256,327.193V316C262.7,316,265.94,320.323,267.378,321.753Zm0,0" transform="translate(-241.381 -297.954)" fill="#bdecfc"/><path d="M171.14,72.992a5.145,5.145,0,0,1-5.14-5.14V66.14a5.14,5.14,0,1,1,10.279,0v1.713A5.146,5.146,0,0,1,171.14,72.992Zm0,0" transform="translate(-156.52 -57.516)" fill="#d6f3fe"/><path d="M256,61V72.992a5.145,5.145,0,0,0,5.14-5.14V66.14A5.145,5.145,0,0,0,256,61Zm0,0" transform="translate(-241.381 -57.516)" fill="#bdecfc"/></svg>