<svg xmlns="http://www.w3.org/2000/svg" width="11.429" height="13.062" viewBox="0 0 11.429 13.062"><path d="M3.776,7.347H2.755a.307.307,0,0,1-.306-.306V6.021a.307.307,0,0,1,.306-.306h1.02a.307.307,0,0,1,.306.306v1.02A.307.307,0,0,1,3.776,7.347Zm2.755-.306V6.021a.307.307,0,0,0-.306-.306H5.2a.307.307,0,0,0-.306.306v1.02a.307.307,0,0,0,.306.306h1.02A.307.307,0,0,0,6.531,7.041Zm2.449,0V6.021a.307.307,0,0,0-.306-.306H7.653a.307.307,0,0,0-.306.306v1.02a.307.307,0,0,0,.306.306h1.02A.307.307,0,0,0,8.98,7.041ZM6.531,9.49V8.47a.307.307,0,0,0-.306-.306H5.2A.307.307,0,0,0,4.9,8.47V9.49A.307.307,0,0,0,5.2,9.8h1.02A.307.307,0,0,0,6.531,9.49Zm-2.449,0V8.47a.307.307,0,0,0-.306-.306H2.755a.307.307,0,0,0-.306.306V9.49a.307.307,0,0,0,.306.306h1.02A.307.307,0,0,0,4.082,9.49Zm4.9,0V8.47a.307.307,0,0,0-.306-.306H7.653a.307.307,0,0,0-.306.306V9.49a.307.307,0,0,0,.306.306h1.02A.307.307,0,0,0,8.98,9.49Zm2.449-6.633v8.98A1.225,1.225,0,0,1,10.2,13.062H1.225A1.225,1.225,0,0,1,0,11.837V2.857A1.225,1.225,0,0,1,1.225,1.633H2.449V.306A.307.307,0,0,1,2.755,0h1.02a.307.307,0,0,1,.306.306V1.633H7.347V.306A.307.307,0,0,1,7.653,0h1.02A.307.307,0,0,1,8.98.306V1.633H10.2A1.225,1.225,0,0,1,11.429,2.857ZM10.2,11.684v-7.6H1.225v7.6a.154.154,0,0,0,.153.153h8.674A.154.154,0,0,0,10.2,11.684Z" fill="#c8c8c8"/></svg>