<svg xmlns="http://www.w3.org/2000/svg" width="22.707" height="23.722" viewBox="0 0 22.707 23.722">
  <path id="cog" d="M39.025,21.634a9.212,9.212,0,0,0,0-3.357L41.063,17.1a.578.578,0,0,0,.263-.67,11.911,11.911,0,0,0-2.616-4.524A.575.575,0,0,0,38,11.8l-2.037,1.177a9.026,9.026,0,0,0-2.908-1.679V8.946a.573.573,0,0,0-.45-.56,12.023,12.023,0,0,0-5.223,0,.573.573,0,0,0-.45.56V11.3a9.311,9.311,0,0,0-2.908,1.679L21.994,11.8a.568.568,0,0,0-.708.11,11.84,11.84,0,0,0-2.616,4.524.572.572,0,0,0,.263.67l2.037,1.177a9.212,9.212,0,0,0,0,3.357l-2.037,1.177a.578.578,0,0,0-.263.67,11.911,11.911,0,0,0,2.616,4.524.575.575,0,0,0,.708.11l2.037-1.177a9.026,9.026,0,0,0,2.908,1.679v2.353a.573.573,0,0,0,.45.56,12.023,12.023,0,0,0,5.223,0,.573.573,0,0,0,.45-.56V28.621a9.311,9.311,0,0,0,2.908-1.679l2.037,1.177a.568.568,0,0,0,.708-.11,11.84,11.84,0,0,0,2.616-4.524ZM30,23.781a3.826,3.826,0,1,1,3.826-3.826A3.831,3.831,0,0,1,30,23.781Z" transform="translate(-18.644 -8.099)" fill="#5e6167"/>
</svg>
