<svg xmlns="http://www.w3.org/2000/svg" width="27.539" height="27.539" viewBox="0 0 27.539 27.539"><g transform="translate(0.301 0.309)"><path d="M33.42,12.909A2.411,2.411,0,0,0,35.1,12.23l2.375,1.187a2.42,2.42,0,1,0,4.585-.744l3.228-3.228a2.42,2.42,0,0,0,3.353-2.908l2.8-2.1a2.417,2.417,0,1,0-.969-1.29l-2.8,2.1A2.42,2.42,0,0,0,44.146,8.3l-3.228,3.228a2.415,2.415,0,0,0-2.722.442l-2.375-1.187a2.42,2.42,0,1,0-2.4,2.122Zm19.363-11.3a.807.807,0,1,1-.807.807A.808.808,0,0,1,52.784,1.614ZM46.329,6.455a.807.807,0,1,1-.807.807A.808.808,0,0,1,46.329,6.455Zm-6.454,6.454a.807.807,0,1,1-.807.807A.808.808,0,0,1,39.875,12.909ZM33.42,9.682a.807.807,0,1,1-.807.807A.808.808,0,0,1,33.42,9.682Zm0,0" transform="translate(-29.633 -0.309)" fill="#d0d7e5"/><path d="M26.732,167.857h-.861V150.807a.807.807,0,0,0-.807-.807H21.838a.807.807,0,0,0-.807.807v17.051H19.417v-12.21a.807.807,0,0,0-.807-.807H15.383a.807.807,0,0,0-.807.807v12.21H12.963V162.1a.807.807,0,0,0-.807-.807H8.929a.807.807,0,0,0-.807.807v5.755H6.508v-8.983a.807.807,0,0,0-.807-.807H2.474a.807.807,0,0,0-.807.807v8.983H.807a.807.807,0,0,0,0,1.614H26.732a.807.807,0,0,0,0-1.614Zm-4.088-16.244h1.614v16.244H22.645Zm-6.454,4.841H17.8v11.4H16.19Zm-6.454,6.454h1.614v4.948H9.736Zm-6.454-3.227H4.895v8.176H3.281Zm0,0" transform="translate(-0.301 -142.241)" fill="#d0d7e5"/></g></svg>