<svg xmlns="http://www.w3.org/2000/svg" width="15.865" height="14.1" viewBox="0 0 15.865 14.1"><path d="M11.089,2.389l2.484,2.484a.269.269,0,0,1,0,.38L7.558,11.269,5,11.553a.536.536,0,0,1-.592-.592L4.694,8.4l6.016-6.016a.269.269,0,0,1,.38,0Zm4.462-.631L14.207.414a1.077,1.077,0,0,0-1.52,0l-.975.975a.269.269,0,0,0,0,.38L14.2,4.254a.269.269,0,0,0,.38,0l.975-.975A1.077,1.077,0,0,0,15.552,1.758ZM10.577,9.633v2.8H1.763V3.623h6.33a.339.339,0,0,0,.234-.1l1.1-1.1a.331.331,0,0,0-.234-.565H1.322A1.322,1.322,0,0,0,0,3.182v9.7A1.322,1.322,0,0,0,1.322,14.2h9.7a1.322,1.322,0,0,0,1.322-1.322V8.531a.331.331,0,0,0-.565-.234l-1.1,1.1A.339.339,0,0,0,10.577,9.633Z" transform="translate(0 -0.1)" fill="#c5c5c5"/></svg>