<svg xmlns="http://www.w3.org/2000/svg" width="27.207" height="27.206" viewBox="0 0 27.207 27.206"><g transform="translate(0 0)"><g transform="translate(9.993)"><g transform="translate(0 0)"><circle cx="3.5" cy="3.5" r="3.5" transform="translate(0.007)" fill="#d0d7e5"/></g></g><g transform="translate(8.502 8.502)"><path d="M170.2,167.548l-.772-6.013a1.694,1.694,0,0,0-1.69-1.53H166.8a.856.856,0,0,0-.6.248l-1.1,1.1-1.1-1.1a.856.856,0,0,0-.6-.248h-.93a1.69,1.69,0,0,0-1.69,1.508l-.774,6.036a.852.852,0,0,0,.843.957h.918l.711,8.672a1.694,1.694,0,0,0,1.692,1.53h1.862a1.7,1.7,0,0,0,1.694-1.546l.709-8.657h.917a.848.848,0,0,0,.638-.289A.837.837,0,0,0,170.2,167.548Z" transform="translate(-160 -160.005)" fill="#d0d7e5"/></g><g transform="translate(19.077)"><g transform="translate(0 0)"><circle cx="3.5" cy="3.5" r="3.5" transform="translate(-0.077)" fill="#d0d7e5"/></g></g><g transform="translate(1.7 0)"><g transform="translate(0 0)"><path d="M35.4,0a3.4,3.4,0,1,0,3.4,3.4A3.4,3.4,0,0,0,35.4,0Z" transform="translate(-31.999 -0.005)" fill="#d0d7e5"/></g></g><g transform="translate(18.92 8.502)"><path d="M364.342,167.548l-.772-6.011a1.693,1.693,0,0,0-1.69-1.532h-.932a.856.856,0,0,0-.6.248l-1.1,1.1-1.1-1.1a.856.856,0,0,0-.6-.248h-.932a1.62,1.62,0,0,0-.3.056,3.311,3.311,0,0,1,.442,1.279l.77,5.992a2.544,2.544,0,0,1-.622,2.017,2.465,2.465,0,0,1-.843.6l.565,5.531a1.694,1.694,0,0,0,1.692,1.53h1.862a1.7,1.7,0,0,0,1.694-1.546l.707-6.956h.917a.848.848,0,0,0,.638-.289A.838.838,0,0,0,364.342,167.548Z" transform="translate(-356.063 -160.005)" fill="#d0d7e5"/></g><g transform="translate(0 8.502)"><path d="M7.437,169.34a2.547,2.547,0,0,1-.616-2L7.6,161.3a3.144,3.144,0,0,1,.423-1.238,1.6,1.6,0,0,0-.286-.054H6.8a.856.856,0,0,0-.6.248l-1.1,1.1-1.1-1.1a.855.855,0,0,0-.6-.248H2.47a1.69,1.69,0,0,0-1.69,1.508L.006,167.55a.852.852,0,0,0,.843.957h.918l.711,6.972a1.694,1.694,0,0,0,1.692,1.53H6.032a1.7,1.7,0,0,0,1.694-1.546l.565-5.518A2.55,2.55,0,0,1,7.437,169.34Z" transform="translate(0.001 -160.005)" fill="#d0d7e5"/></g></g></svg>