<svg xmlns="http://www.w3.org/2000/svg" width="17.646" height="14.117" viewBox="0 0 17.646 14.117"><path d="M8.824,11.025a3.956,3.956,0,0,1-3.94-3.67L1.992,5.12A9.189,9.189,0,0,0,.98,6.653a.892.892,0,0,0,0,.8,8.843,8.843,0,0,0,7.845,4.891,8.564,8.564,0,0,0,2.148-.288L9.541,10.953a3.974,3.974,0,0,1-.717.072Zm8.653,1.6-3.048-2.356a9.133,9.133,0,0,0,2.24-2.814.892.892,0,0,0,0-.8A8.843,8.843,0,0,0,8.824,1.761,8.5,8.5,0,0,0,4.763,2.8L1.255.09A.441.441,0,0,0,.636.167l-.541.7a.441.441,0,0,0,.077.619L16.394,14.021a.441.441,0,0,0,.619-.077l.542-.7A.441.441,0,0,0,17.477,12.627ZM12.411,8.712l-1.084-.838a2.613,2.613,0,0,0-3.2-3.362,1.314,1.314,0,0,1,.257.778,1.286,1.286,0,0,1-.042.276L6.311,4a3.924,3.924,0,0,1,2.513-.913,3.968,3.968,0,0,1,3.97,3.97,3.876,3.876,0,0,1-.383,1.657Z" transform="translate(-0.001 0.003)" fill="#9f9f9f"/></svg>