<svg xmlns="http://www.w3.org/2000/svg" width="13.191" height="11.542" viewBox="0 0 13.191 11.542"><path d="M12.779,41.069H4.122v-.412a.413.413,0,0,0-.412-.412H2.886a.413.413,0,0,0-.412.412v.412H.412A.413.413,0,0,0,0,41.481v.824a.413.413,0,0,0,.412.412H2.473v.412a.413.413,0,0,0,.412.412H3.71a.413.413,0,0,0,.412-.412v-.412h8.657a.413.413,0,0,0,.412-.412v-.824A.413.413,0,0,0,12.779,41.069Zm0-4.122H10.718v-.412a.413.413,0,0,0-.412-.412H9.481a.413.413,0,0,0-.412.412v.412H.412A.413.413,0,0,0,0,37.359v.824a.413.413,0,0,0,.412.412H9.069v.412a.413.413,0,0,0,.412.412h.824a.413.413,0,0,0,.412-.412V38.6h2.061a.413.413,0,0,0,.412-.412v-.824A.413.413,0,0,0,12.779,36.947Zm0-4.122H7.42v-.412A.413.413,0,0,0,7.008,32H6.183a.413.413,0,0,0-.412.412v.412H.412A.413.413,0,0,0,0,33.237v.824a.413.413,0,0,0,.412.412H5.771v.412a.413.413,0,0,0,.412.412h.824a.413.413,0,0,0,.412-.412v-.412h5.359a.413.413,0,0,0,.412-.412v-.824A.413.413,0,0,0,12.779,32.824Z" transform="translate(0 -32)" fill="#c8c8c8"/></svg>