<svg xmlns="http://www.w3.org/2000/svg" width="256.38" height="90" viewBox="0 0 256.38 90"><g transform="translate(-341.62 -350)"><text transform="translate(401 419)" fill="rgba(255,255,255,0.38)" font-size="72" font-family="GoogleSans-Bold, Google Sans" font-weight="700" letter-spacing="-0.078em"><tspan x="0" y="0">Emmy</tspan></text><g transform="translate(341.403 366.231)"><path d="M52.73,26.094q0,12.72.008,25.439c0,.294-.059.352-.357.352q-25.9-.013-51.806,0c-.3,0-.358-.058-.358-.352Q.231,26.051.217.569C.217.275.276.217.575.217q25.9.013,51.806,0c.3,0,.358.058.357.352Q52.723,13.331,52.73,26.094Z" transform="translate(0 0)" fill="#82efca" fill-rule="evenodd"/><path d="M40.2,92.64a1.521,1.521,0,0,1-.652-.227,15.911,15.911,0,0,1-5.437-5.2,12.432,12.432,0,0,1-1.045-2.039,2.516,2.516,0,0,1-.165-1.231c.1-.779.686-1.115,1.309-1.367a7.858,7.858,0,0,1,3.834-.49,82.049,82.049,0,0,0,9.088.83,37.548,37.548,0,0,0,6.453-.516,16.831,16.831,0,0,1,4.625-.365,6.587,6.587,0,0,1,2.847,1.017,1.526,1.526,0,0,1,.479,1.759,13.078,13.078,0,0,1-2.257,3.869,15.888,15.888,0,0,1-2.981,2.828,7.294,7.294,0,0,1-2.07,1.17,8.821,8.821,0,0,0-2.14-1.367A11.46,11.46,0,0,0,48.275,90.3a11.822,11.822,0,0,0-7.333,1.845C40.683,92.3,40.524,92.591,40.2,92.64Z" transform="translate(-20.773 -52.559)" fill="#414141" fill-rule="evenodd"/><path d="M52.981,106.852a1.494,1.494,0,0,1,.572-.634,12.452,12.452,0,0,1,5.666-1.936,11.163,11.163,0,0,1,6.4,1.414c.368.2.717.438,1.072.66a.608.608,0,0,1,.311.537,8.2,8.2,0,0,1-2.764,1.216,16.716,16.716,0,0,1-6.989.315,18.077,18.077,0,0,1-3.445-1.033A1.771,1.771,0,0,1,52.981,106.852Z" transform="translate(-33.557 -66.806)" fill="#fa7a7b" fill-rule="evenodd"/><path d="M109.331,54.684c-.008.356-.007.606-.274.744s-.468-.028-.665-.179a3.167,3.167,0,0,0-1.63-.549,4.975,4.975,0,0,0-3.547.68.393.393,0,0,1-.487.041.672.672,0,0,1-.235-.663,3.935,3.935,0,0,1,.691-1.932A3.32,3.32,0,0,1,107.817,52,3.389,3.389,0,0,1,109.331,54.684Z" transform="translate(-65.04 -32.871)" fill="#414141" fill-rule="evenodd"/><path d="M30.236,54.971a.548.548,0,0,1-.27.511c-.194.13-.365.028-.525-.073a5.424,5.424,0,0,0-4.724-.34,1.59,1.59,0,0,0-.552.338.4.4,0,0,1-.481.1.574.574,0,0,1-.353-.511A3.587,3.587,0,0,1,25.951,51.6a3.307,3.307,0,0,1,3.908,1.957A4.568,4.568,0,0,1,30.236,54.971Z" transform="translate(-14.699 -32.929)" fill="#414141" fill-rule="evenodd"/></g><text transform="translate(342 435)" fill="#646e78" font-size="11" font-family="GoogleSans-Regular, Google Sans"><tspan x="0" y="0">Manage and monitor employee satisfaction</tspan></text></g></svg>