<svg xmlns="http://www.w3.org/2000/svg" width="113.38" height="35" viewBox="0 0 113.38 35"><g transform="translate(-21.62 -22.815)"><g transform="translate(21.62 27.117)"><path d="M29.859,14.714q0,7.232,0,14.465c0,.167-.033.2-.2.2q-14.729-.008-29.457,0c-.17,0-.2-.033-.2-.2Q.008,14.689,0,.2C0,.033.033,0,.2,0Q14.932.008,29.661,0c.17,0,.2.033.2.2Q29.855,7.457,29.859,14.714Z" transform="translate(0 0)" fill="#82efca" fill-rule="evenodd"/><path d="M4.161,6.056a.865.865,0,0,1-.371-.129A9.047,9.047,0,0,1,.7,2.971,7.069,7.069,0,0,1,.1,1.811a1.431,1.431,0,0,1-.094-.7C.065.668.4.477.755.334A4.468,4.468,0,0,1,2.935.055,46.657,46.657,0,0,0,8.1.527,21.351,21.351,0,0,0,11.771.234,9.57,9.57,0,0,1,14.4.026,3.745,3.745,0,0,1,16.02.6a.868.868,0,0,1,.272,1,7.436,7.436,0,0,1-1.283,2.2,9.034,9.034,0,0,1-1.695,1.608,4.147,4.147,0,0,1-1.177.665A5.016,5.016,0,0,0,10.92,5.3a6.516,6.516,0,0,0-2.165-.578A6.722,6.722,0,0,0,4.585,5.772C4.437,5.859,4.347,6.028,4.161,6.056Z" transform="translate(6.76 16.611)" fill="#414141" fill-rule="evenodd"/><path d="M0,1.484a.85.85,0,0,1,.325-.361A7.08,7.08,0,0,1,3.547.022a6.348,6.348,0,0,1,3.642.8c.209.115.408.249.61.375a.346.346,0,0,1,.177.305A4.661,4.661,0,0,1,6.4,2.2a9.505,9.505,0,0,1-3.974.179A10.279,10.279,0,0,1,.47,1.789,1.007,1.007,0,0,1,0,1.484Z" transform="translate(10.921 21.163)" fill="#fa7a7b" fill-rule="evenodd"/><path d="M3.894,1.865c0,.2,0,.345-.156.423s-.266-.016-.378-.1a1.8,1.8,0,0,0-.927-.312,2.829,2.829,0,0,0-2.017.387.224.224,0,0,1-.277.023.382.382,0,0,1-.134-.377A2.238,2.238,0,0,1,.4.809,1.888,1.888,0,0,1,3.033.339,1.927,1.927,0,0,1,3.894,1.865Z" transform="translate(21.167 10.414)" fill="#414141" fill-rule="evenodd"/><path d="M3.927,1.977a.312.312,0,0,1-.154.291c-.11.074-.208.016-.3-.041A3.084,3.084,0,0,0,.789,2.033a.9.9,0,0,0-.314.192A.228.228,0,0,1,.2,2.279.326.326,0,0,1,0,1.988,2.039,2.039,0,0,1,1.491.061,1.88,1.88,0,0,1,3.713,1.174,2.6,2.6,0,0,1,3.927,1.977Z" transform="translate(4.784 10.433)" fill="#414141" fill-rule="evenodd"/></g><text transform="translate(58 50.815)" fill="#414141" font-size="29" font-family="ProductSans-Bold, Product Sans" font-weight="700" letter-spacing="-0.078em"><tspan x="0" y="0">Emmy</tspan></text></g></svg>