<svg xmlns="http://www.w3.org/2000/svg" width="99.38" height="31" viewBox="0 0 99.38 31"><g transform="translate(-21.62 -23)"><g transform="translate(21.403 26.231)"><path d="M25.228,12.542q0,6.058,0,12.116c0,.14-.028.168-.17.167q-12.337-.006-24.674,0c-.143,0-.17-.027-.17-.167Q.223,12.521.217.385c0-.14.028-.168.17-.168q12.337.006,24.674,0c.142,0,.17.027.17.168Q25.225,6.463,25.228,12.542Z" fill="#82efca" fill-rule="evenodd"/><path d="M36.364,87.063a.724.724,0,0,1-.311-.108,7.578,7.578,0,0,1-2.589-2.476,5.921,5.921,0,0,1-.5-.971,1.2,1.2,0,0,1-.078-.586c.046-.371.327-.531.623-.651a3.743,3.743,0,0,1,1.826-.233,39.081,39.081,0,0,0,4.328.4,17.884,17.884,0,0,0,3.074-.246,8.016,8.016,0,0,1,2.2-.174A3.137,3.137,0,0,1,46.3,82.5a.727.727,0,0,1,.228.838,6.229,6.229,0,0,1-1.075,1.843,7.567,7.567,0,0,1-1.42,1.347,3.474,3.474,0,0,1-.986.557,4.2,4.2,0,0,0-1.019-.651,5.458,5.458,0,0,0-1.814-.484,5.631,5.631,0,0,0-3.492.879C36.6,86.9,36.52,87.039,36.364,87.063Z" transform="translate(-26.999 -67.859)" fill="#414141" fill-rule="evenodd"/><path d="M52.981,105.485a.712.712,0,0,1,.273-.3,5.931,5.931,0,0,1,2.7-.922,5.317,5.317,0,0,1,3.05.673c.175.1.341.208.511.314a.29.29,0,0,1,.148.256,3.9,3.9,0,0,1-1.317.579,7.962,7.962,0,0,1-3.329.15,8.611,8.611,0,0,1-1.641-.492A.844.844,0,0,1,52.981,105.485Z" transform="translate(-43.616 -86.298)" fill="#fa7a7b" fill-rule="evenodd"/><path d="M105.745,52.966c0,.17,0,.289-.131.354s-.223-.013-.317-.085a1.508,1.508,0,0,0-.776-.262,2.369,2.369,0,0,0-1.69.324.187.187,0,0,1-.232.019.32.32,0,0,1-.112-.316,1.874,1.874,0,0,1,.329-.92,1.581,1.581,0,0,1,2.207-.394A1.614,1.614,0,0,1,105.745,52.966Z" transform="translate(-84.536 -42.463)" fill="#414141" fill-rule="evenodd"/><path d="M26.618,53.15a.261.261,0,0,1-.129.243c-.092.062-.174.013-.25-.035a2.584,2.584,0,0,0-2.25-.162.758.758,0,0,0-.263.161.191.191,0,0,1-.229.045.273.273,0,0,1-.168-.244,1.708,1.708,0,0,1,1.248-1.614,1.575,1.575,0,0,1,1.861.932A2.176,2.176,0,0,1,26.618,53.15Z" transform="translate(-19.105 -42.538)" fill="#414141" fill-rule="evenodd"/></g><text transform="translate(52 47)" fill="#414141" font-size="25" font-family="GoogleSans-Bold, Google Sans" font-weight="700" letter-spacing="-0.078em"><tspan x="0" y="0">Emmy</tspan></text></g></svg>