<svg xmlns="http://www.w3.org/2000/svg" width="18.55" height="23.404" viewBox="0 0 18.55 23.404"><g transform="translate(-53.013 0)"><path d="M184.9,465.044a3.535,3.535,0,0,0,6.472,0Z" transform="translate(-125.852 -443.751)" fill="#d0d7e5"/><path d="M198.992,2.236a7.952,7.952,0,0,1,2.715.476v-.1A2.61,2.61,0,0,0,199.1,0h-.216a2.61,2.61,0,0,0-2.607,2.607v.1A7.968,7.968,0,0,1,198.992,2.236Z" transform="translate(-136.704)" fill="#d0d7e5"/><path d="M70.858,95.146H53.718a.7.7,0,0,1-.689-.536.666.666,0,0,1,.367-.758,3.637,3.637,0,0,0,1.107-1.5,17.385,17.385,0,0,0,1.154-6.88,6.631,6.631,0,0,1,13.262-.026c0,.009,0,.018,0,.026a17.385,17.385,0,0,0,1.154,6.88,3.636,3.636,0,0,0,1.107,1.5.666.666,0,0,1,.367.758A.7.7,0,0,1,70.858,95.146Zm.33-1.289h0Z" transform="translate(0 -75.226)" fill="#d0d7e5"/></g></svg>