<svg id="search" xmlns="http://www.w3.org/2000/svg" width="9.915" height="9.915" viewBox="0 0 9.915 9.915">
  <path id="search_icon" data-name="search icon" d="M9.695,8.619,7.651,6.575A4.081,4.081,0,0,0,8.39,4.2a4.12,4.12,0,0,0-.331-1.63A4.108,4.108,0,0,0,5.825.334a4.181,4.181,0,0,0-3.259,0A4.108,4.108,0,0,0,.331,2.568a4.181,4.181,0,0,0,0,3.259A4.109,4.109,0,0,0,2.565,8.062a4.122,4.122,0,0,0,1.63.331,4.081,4.081,0,0,0,2.378-.739L8.616,9.691a.708.708,0,0,0,.536.226.763.763,0,0,0,.542-1.3ZM6.081,6.084a2.571,2.571,0,0,1-1.886.784,2.571,2.571,0,0,1-1.886-.784A2.571,2.571,0,0,1,1.525,4.2a2.571,2.571,0,0,1,.784-1.886,2.571,2.571,0,0,1,1.886-.784,2.571,2.571,0,0,1,1.886.784A2.57,2.57,0,0,1,6.864,4.2,2.571,2.571,0,0,1,6.081,6.084Z" transform="translate(0 -0.003)" fill="#c8c8c8"/>
</svg>
