<svg xmlns="http://www.w3.org/2000/svg" xmlns:xlink="http://www.w3.org/1999/xlink" width="16" height="17" viewBox="0 0 16 17"><defs><clipPath id="a"><rect width="16" height="17" transform="translate(0.099 0.049)" fill="#f3f3f3"/></clipPath></defs><g transform="translate(-0.099 -0.049)" clip-path="url(#a)"><g transform="translate(-0.025 0.22)"><path d="M8.081,16.146q-3.992,0-7.984,0c-.092,0-.111-.018-.11-.11q0-7.971,0-15.942C-.014,0,0-.015.1-.014q8,0,16,0c.092,0,.111.018.11.11q0,7.971,0,15.942c0,.092-.018.11-.11.11Q12.087,16.144,8.081,16.146Zm.148-4.263a9.346,9.346,0,0,1,1.374.1c.262.039.522.088.783.129.233.037.35-.06.368-.291a.588.588,0,0,0-.1-.395,3.824,3.824,0,0,0-1.3-1.188,2.626,2.626,0,0,0-2.028-.161A2.77,2.77,0,0,0,5.544,11.4a.784.784,0,0,0-.116.355c-.01.279.139.408.413.355A12.18,12.18,0,0,1,8.229,11.883ZM4.7,6.573c-.085,0-.17,0-.256,0s-.179-.009-.269-.008c-.24,0-.324.106-.282.341a1.064,1.064,0,0,0,.176.432.842.842,0,0,0,.631.39.977.977,0,0,0,.925-.862.235.235,0,0,0-.165-.248.653.653,0,0,0-.236-.045ZM11.483,7.73a.857.857,0,0,0,.114-.02,1.02,1.02,0,0,0,.674-.663c.114-.28.024-.449-.276-.465-.4-.022-.8-.016-1.2-.012a.2.2,0,0,0-.218.223A.937.937,0,0,0,11.483,7.73Z" transform="translate(0.014 0.014)" fill="#ff8484" fill-rule="evenodd"/><path d="M11.512,17.9a12.166,12.166,0,0,0-2.388.227c-.274.053-.423-.075-.413-.355a.782.782,0,0,1,.116-.355A2.77,2.77,0,0,1,10.6,16.094a2.626,2.626,0,0,1,2.028.161,3.827,3.827,0,0,1,1.3,1.188.588.588,0,0,1,.1.395c-.017.231-.134.328-.368.291-.261-.041-.521-.09-.783-.129A9.351,9.351,0,0,0,11.512,17.9Z" transform="translate(-3.269 -5.998)" fill="#4d4645" fill-rule="evenodd"/><path d="M7.053,10.542h.525a.655.655,0,0,1,.236.045.235.235,0,0,1,.165.248.977.977,0,0,1-.925.862.842.842,0,0,1-.631-.39,1.066,1.066,0,0,1-.176-.432c-.042-.235.042-.339.282-.341.09,0,.179.007.269.008S6.968,10.542,7.053,10.542Z" transform="translate(-2.338 -3.954)" fill="#4d4645" fill-rule="evenodd"/><path d="M17.874,11.7a.937.937,0,0,1-.9-.938.2.2,0,0,1,.218-.223c.4,0,.8-.01,1.2.012.3.017.39.185.276.465a1.02,1.02,0,0,1-.674.663A.862.862,0,0,1,17.874,11.7Z" transform="translate(-6.376 -3.955)" fill="#4d4645" fill-rule="evenodd"/></g></g></svg>