<svg xmlns="http://www.w3.org/2000/svg" width="29.509" height="20.654" viewBox="0 0 29.509 20.654">
  <path id="users-cog" d="M28.151,46.358a5.409,5.409,0,0,0,0-1.964l1.19-.687a.334.334,0,0,0,.152-.392,6.92,6.92,0,0,0-1.531-2.647.336.336,0,0,0-.415-.065l-1.19.687a5.414,5.414,0,0,0-1.7-.982V38.934a.336.336,0,0,0-.263-.327,6.957,6.957,0,0,0-3.053,0,.336.336,0,0,0-.263.327v1.374a5.414,5.414,0,0,0-1.7.982l-1.19-.687a.337.337,0,0,0-.415.065,6.92,6.92,0,0,0-1.531,2.647.34.34,0,0,0,.152.392l1.19.687a5.409,5.409,0,0,0,0,1.964l-1.19.687a.334.334,0,0,0-.152.392,6.954,6.954,0,0,0,1.531,2.647.336.336,0,0,0,.415.065l1.19-.687a5.414,5.414,0,0,0,1.7.982v1.374a.336.336,0,0,0,.263.327,6.957,6.957,0,0,0,3.053,0,.336.336,0,0,0,.263-.327V50.443a5.414,5.414,0,0,0,1.7-.982l1.19.687a.337.337,0,0,0,.415-.065,6.92,6.92,0,0,0,1.531-2.647.34.34,0,0,0-.152-.392Zm-5.28,1.254a2.236,2.236,0,1,1,2.236-2.236A2.239,2.239,0,0,1,22.872,47.612ZM4.427,40.949A2.951,2.951,0,1,0,1.476,38,2.954,2.954,0,0,0,4.427,40.949Zm10.329,1.476c.088,0,.171-.023.258-.028a8.5,8.5,0,0,1,1.674-2.73,1.817,1.817,0,0,1,1.333-.581,1.772,1.772,0,0,1,.9.244l.364.212c.037-.023.074-.042.111-.065a5.1,5.1,0,0,0,.516-2.213,5.162,5.162,0,1,0-5.16,5.16Zm4.851,8.969c-.106-.055-.212-.12-.314-.18a2.278,2.278,0,0,1-1.268.452,1.833,1.833,0,0,1-1.333-.581,8.408,8.408,0,0,1-1.854-3.209,1.968,1.968,0,0,1,1.19-2.319q-.007-.18,0-.36l-.364-.212a1.878,1.878,0,0,1-.452-.374c-.152.009-.3.028-.452.028A7.279,7.279,0,0,1,11.6,43.9h-.383A5.314,5.314,0,0,0,5.9,49.212V50.54a2.214,2.214,0,0,0,2.213,2.213H19.893a1.775,1.775,0,0,1-.286-.936v-.424ZM7.982,43.282a2.942,2.942,0,0,0-2.08-.858H2.951A2.954,2.954,0,0,0,0,45.376v1.476a1.474,1.474,0,0,0,1.476,1.476H4.514A6.762,6.762,0,0,1,7.982,43.282Z" transform="translate(0 -32.1)" fill="#82efca"/>
</svg>
